<?xml version="1.0" encoding="UTF-8" standalone="no"?>
<!-- Created with Inkscape (http://www.inkscape.org/) -->

<svg
   width="9.1424007mm"
   height="9.1424007mm"
   viewBox="0 0 9.1424007 9.1424007"
   version="1.1"
   id="svg1"
   inkscape:version="1.4.4 (2baacb258a, 2026-06-01)"
   sodipodi:docname="all-graphics-inkscape.svg"
   xml:space="preserve"
   xmlns:inkscape="http://www.inkscape.org/namespaces/inkscape"
   xmlns:sodipodi="http://sodipodi.sourceforge.net/DTD/sodipodi-0.dtd"
   xmlns="http://www.w3.org/2000/svg"
   xmlns:svg="http://www.w3.org/2000/svg"><sodipodi:namedview
     id="namedview1"
     pagecolor="#000000"
     bordercolor="#ffffff"
     borderopacity="1"
     inkscape:showpageshadow="0"
     inkscape:pageopacity="0"
     inkscape:pagecheckerboard="1"
     inkscape:deskcolor="#282828"
     inkscape:document-units="mm"
     showborder="false"
     inkscape:zoom="5.6568542"
     inkscape:cx="3126.561"
     inkscape:cy="1867.1155"
     inkscape:window-width="1920"
     inkscape:window-height="1011"
     inkscape:window-x="0"
     inkscape:window-y="0"
     inkscape:window-maximized="1"
     inkscape:current-layer="layer1"><inkscape:page
       x="0"
       y="0"
       width="9.1424007"
       height="9.1424007"
       id="page2"
       margin="0"
       bleed="0" /></sodipodi:namedview><defs
     id="defs1"><linearGradient
       id="swatch404"
       inkscape:swatch="solid"><stop
         style="stop-color:#323232;stop-opacity:1;"
         offset="0"
         id="stop404" /></linearGradient></defs><g
     inkscape:label="Layer 1"
     inkscape:groupmode="layer"
     id="layer1"
     transform="translate(-824.17406,-482.63455)"><rect
       style="fill:#000000;fill-opacity:0;stroke-width:0.111933;stroke-linecap:square"
       id="rect1"
       width="9.1424046"
       height="9.1424046"
       x="824.17413"
       y="482.63452"
       inkscape:export-filename="../zed/icons/file-icon-dark.svg"
       inkscape:export-xdpi="96"
       inkscape:export-ydpi="96" /><circle
       style="opacity:0;fill:#11131b;fill-opacity:0.980392;stroke-width:0.93;stroke-linecap:square;stroke-linejoin:round"
       id="path7-1-3-6-2"
       cx="-832.51996"
       cy="479.1853"
       r="1.6745491"
       transform="matrix(-0.99995644,-0.00933411,-0.00933411,0.99995644,0,0)"
       inkscape:export-filename="../zed/icons/file-icon-dark.svg"
       inkscape:export-xdpi="96"
       inkscape:export-ydpi="96" /><path
       id="path10-4-8-3-5-1-0"
       style="fill:#ffffff;fill-opacity:1;stroke-width:1.45206;stroke-linecap:square;stroke-linejoin:round"
       d="m 831.289,484.31497 a 3.7283301,3.7283301 0 0 0 -1.81178,0.4377 2.7823279,2.7823279 0 0 0 -0.92811,-0.37259 2.7823279,2.7823279 0 0 0 -3.26956,2.19005 2.7823279,2.7823279 0 0 0 2.19004,3.26905 2.7823279,2.7823279 0 0 0 0.51108,0.047 3.7283301,3.7283301 0 0 0 0.003,0.006 12.051868,12.051868 0 0 1 0.003,-0.006 2.7823279,2.7823279 0 0 0 2.36316,-1.27176 14.042694,14.042694 0 0 1 1.67535,2.00401 4.3442063,4.3442063 0 0 0 -0.35347,-3.34708 4.3442063,4.3442063 0 0 0 -1.13636,-1.33274 12.051868,12.051868 0 0 1 1.72858,-1.47587 3.7283301,3.7283301 0 0 0 -0.97462,-0.1478 z m -3.44682,0.56793 a 1.8987614,1.8987614 0 0 1 0.49506,0.032 1.8987614,1.8987614 0 0 1 1.35237,1.06661 4.182767,4.182767 0 0 1 -3.56412,1.2392 1.8987614,1.8987614 0 0 1 -0.0196,-0.81132 1.8987614,1.8987614 0 0 1 1.73633,-1.52652 z" /></g></svg>
